<?xml version="1.0" standalone="no"?>
<!DOCTYPE svg PUBLIC "-//W3C//DTD SVG 20010904//EN"
 "http://www.w3.org/TR/2001/REC-SVG-20010904/DTD/svg10.dtd">
<svg version="1.0" xmlns="http://www.w3.org/2000/svg"
 width="230.000000pt" height="155.000000pt" viewBox="0 0 230.000000 155.000000"
 preserveAspectRatio="xMidYMid meet">
<metadata>
Created by potrace 1.13, written by Peter Selinger 2001-2015
</metadata>
<g transform="translate(0.000000,155.000000) scale(0.100000,-0.100000)"
fill="#000000" stroke="none">
<path d="M1308 1433 c-13 -3 -18 -15 -18 -39 0 -31 -5 -37 -45 -56 -44 -21
-46 -22 -75 -5 -29 17 -31 17 -59 -4 -16 -11 -34 -32 -42 -45 -10 -20 -10 -27
7 -45 18 -20 18 -21 -5 -65 -21 -38 -28 -44 -57 -44 -34 0 -38 -6 -48 -64 -7
-41 -13 -42 -26 -2 -10 30 -9 40 6 65 16 27 16 30 -2 54 -10 14 -30 32 -43 40
-23 14 -27 13 -57 -9 -25 -20 -36 -23 -55 -15 -13 5 -35 12 -49 15 -17 3 -29
16 -37 36 -13 34 -17 34 -92 4 -31 -13 -33 -16 -28 -50 5 -32 2 -41 -26 -71
-25 -27 -39 -33 -64 -31 -42 3 -49 -6 -58 -69 -7 -52 -7 -52 27 -66 27 -11 35
-22 46 -62 11 -41 11 -50 -3 -65 -23 -26 -18 -45 20 -79 42 -36 52 -38 80 -11
19 18 25 19 73 8 41 -10 54 -18 63 -40 13 -32 32 -35 89 -12 38 15 40 18 40
58 0 35 6 48 34 75 25 24 41 32 62 29 21 -2 28 -8 26 -20 -3 -18 31 -93 47
-102 5 -4 21 -1 34 5 23 10 29 8 61 -25 29 -30 35 -44 33 -73 -2 -33 2 -38 43
-60 l45 -24 22 26 c21 24 27 25 74 19 44 -6 52 -11 61 -35 9 -26 15 -29 53
-29 63 0 75 7 75 45 0 29 5 36 43 54 52 25 55 25 79 4 16 -14 21 -15 44 -2 14
7 35 26 45 41 19 26 19 28 3 54 -17 25 -17 28 6 70 20 39 27 44 56 44 36 0 36
0 49 82 5 34 4 37 -28 47 -32 11 -35 15 -40 64 -5 36 -3 54 6 59 41 25 41 25
27 60 -25 62 -40 79 -60 68 -32 -17 -49 -11 -84 27 -32 36 -33 39 -20 65 14
27 13 29 -18 48 -57 35 -79 36 -103 6 -22 -28 -23 -28 -71 -14 -38 10 -49 19
-54 38 -5 22 -12 25 -50 27 -25 0 -53 -1 -62 -4z m224 -269 c79 -55 112 -147
84 -232 -47 -140 -204 -191 -328 -105 -50 34 -78 94 -78 166 0 72 17 115 61
151 53 45 87 57 156 53 50 -2 71 -9 105 -33z m-741 -113 c39 -40 41 -100 3
-138 -22 -22 -32 -25 -75 -21 -62 6 -80 23 -86 81 -5 41 -2 49 25 77 42 41 92
42 133 1z m243 -173 c-3 -5 -11 -8 -18 -8 -11 0 -11 8 -2 41 l11 41 7 -33 c3
-18 4 -37 2 -41z"/>
<path d="M114 387 c-2 -7 -3 -74 -2 -148 l3 -134 35 -3 c19 -2 68 -1 109 3 59
6 79 12 97 31 29 28 31 72 5 105 -17 22 -17 27 -5 44 20 27 17 50 -10 81 -22
27 -28 28 -125 31 -76 2 -103 -1 -107 -10z m145 -66 c19 -12 4 -31 -25 -31
-17 0 -24 5 -24 20 0 21 24 27 49 11z m16 -121 c0 -10 -12 -16 -32 -18 -28 -3
-33 0 -33 18 0 18 5 21 33 18 20 -2 32 -8 32 -18z"/>
<path d="M417 394 c-4 -4 -7 -72 -7 -151 l0 -143 39 0 c45 0 55 8 102 82 l34
53 5 -65 5 -65 43 -3 42 -3 0 150 0 151 -42 -3 c-40 -2 -45 -6 -88 -67 l-45
-65 -5 65 -5 65 -35 3 c-20 2 -39 0 -43 -4z"/>
<path d="M717 394 c-4 -4 -7 -25 -7 -46 l0 -38 45 0 44 0 3 -102 3 -103 45 0
45 0 3 102 3 102 42 3 c42 3 42 3 42 43 l0 40 -131 3 c-71 1 -133 -1 -137 -4z"/>
<path d="M1025 387 c-3 -7 -4 -74 -3 -148 l3 -134 175 0 174 0 24 35 c13 19
27 36 31 38 4 1 17 -16 30 -38 22 -39 24 -40 77 -40 30 0 54 2 54 6 0 3 -18
32 -40 64 -22 33 -43 66 -46 75 -3 8 12 43 35 80 23 35 41 67 41 69 0 3 -23 5
-51 4 -47 0 -52 -2 -71 -34 -11 -19 -24 -34 -28 -34 -4 0 -17 15 -28 34 -19
32 -23 34 -71 33 -28 0 -51 -3 -51 -6 0 -3 18 -33 40 -66 22 -33 40 -63 40
-67 0 -4 -19 -37 -42 -74 -42 -65 -43 -66 -46 -35 l-3 31 -75 0 c-67 0 -74 2
-74 20 0 18 7 20 65 20 l65 0 0 35 0 35 -65 0 c-51 0 -65 3 -65 15 0 12 15 15
71 15 l70 0 -3 38 -3 37 -113 3 c-86 2 -114 0 -117 -11z"/>
<path d="M1600 250 l0 -151 48 3 47 3 3 58 3 58 37 -3 37 -3 3 -58 3 -58 47 3
47 3 0 145 0 145 -47 3 -48 3 0 -50 0 -51 -39 0 -40 0 -3 48 -3 47 -47 3 -48
3 0 -151z"/>
<path d="M2005 393 c-35 -10 -63 -34 -79 -68 -32 -67 -12 -165 40 -200 62 -40
183 -23 219 31 42 65 25 182 -32 219 -26 17 -113 28 -148 18z m95 -92 c5 -11
10 -34 10 -51 0 -47 -16 -70 -50 -70 -34 0 -50 23 -50 70 0 17 5 40 10 51 14
26 66 26 80 0z"/>
</g>
</svg>
