<?xml version="1.0" encoding="UTF-8" standalone="yes"?>
<!-- Created with sK1/UniConvertor (http://sk1project.org/) -->
<svg xmlns="http://www.w3.org/2000/svg" xmlns:xlink="http://www.w3.org/1999/xlink"
	width="230pt" height="155pt" viewBox="0 0 230 155"
	fill-rule="evenodd">
	<g>
		<g>
			<path style="stroke:none; fill:#000000" d="M 130.8 11.7C 129.5 12 129 13.2 129 15.6C 129 18.7 128.5 19.3 124.5 21.2C 120.1 23.3 119.9 23.4 117 21.7C 114.1 20 113.9 20 111.1 22.1C 109.5 23.2 107.7 25.3 106.9 26.6C 105.9 28.6 105.9 29.3 107.6 31.1C 109.4 33.1 109.4 33.2 107.1 37.6C 105 41.4 104.3 42 101.4 42C 98 42 97.6 42.6 96.6 48.4C 95.9 52.5 95.3 52.6 94 48.6C 93 45.6 93.1 44.6 94.6 42.1C 96.2 39.4 96.2 39.1 94.4 36.7C 93.4 35.3 91.4 33.5 90.1 32.7C 87.8 31.3 87.4 31.4 84.4 33.6C 81.9 35.6 80.8 35.9 78.9 35.1C 77.6 34.6 75.4 33.9 74 33.6C 72.3 33.3 71.1 32 70.3 30C 69 26.6 68.6 26.6 61.1 29.6C 58 30.9 57.8 31.2 58.3 34.6C 58.8 37.8 58.5 38.7 55.7 41.7C 53.2 44.4 51.8 45 49.3 44.8C 45.1 44.5 44.4 45.4 43.5 51.7C 42.8 56.9 42.8 56.9 46.2 58.3C 48.9 59.4 49.7 60.5 50.8 64.5C 51.9 68.6 51.9 69.5 50.5 71C 48.2 73.6 48.7 75.5 52.5 78.9C 56.7 82.5 57.7 82.7 60.5 80C 62.4 78.2 63 78.1 67.8 79.2C 71.9 80.2 73.2 81 74.1 83.2C 75.4 86.4 77.3 86.7 83 84.4C 86.8 82.9 87 82.6 87 78.6C 87 75.1 87.6 73.8 90.4 71.1C 92.9 68.7 94.5 67.9 96.6 68.2C 98.7 68.4 99.4 69 99.2 70.2C 98.9 72 102.3 79.5 103.9 80.4C 104.4 80.8 106 80.5 107.3 79.9C 109.6 78.9 110.2 79.1 113.4 82.4C 116.3 85.4 116.9 86.8 116.7 89.7C 116.5 93 116.9 93.5 121 95.7L 125.5 98.1L 127.7 95.5C 129.8 93.1 130.4 93 135.1 93.6C 139.5 94.2 140.3 94.7 141.2 97.1C 142.1 99.7 142.7 100 146.5 100C 152.8 100 154 99.3 154 95.5C 154 92.6 154.5 91.9 158.3 90.1C 163.5 87.6 163.8 87.6 166.2 89.7C 167.8 91.1 168.3 91.2 170.6 89.9C 172 89.2 174.1 87.3 175.1 85.8C 177 83.2 177 83 175.4 80.4C 173.7 77.9 173.7 77.6 176 73.4C 178 69.5 178.7 69 181.6 69C 185.2 69 185.2 69 186.5 60.8C 187 57.4 186.9 57.1 183.7 56.1C 180.5 55 180.2 54.6 179.7 49.7C 179.2 46.1 179.4 44.3 180.3 43.8C 184.4 41.3 184.4 41.3 183 37.8C 180.5 31.6 179 29.9 177 31C 173.8 32.7 172.1 32.1 168.6 28.3C 165.4 24.7 165.3 24.4 166.6 21.8C 168 19.1 167.9 18.9 164.8 17C 159.1 13.5 156.9 13.4 154.5 16.4C 152.3 19.2 152.2 19.2 147.4 17.8C 143.6 16.8 142.5 15.9 142 14C 141.5 11.8 140.8 11.5 137 11.3C 134.5 11.3 131.7 11.4 130.8 11.7zM 153.2 38.6C 161.1 44.1 164.4 53.3 161.6 61.8C 156.9 75.8 141.2 80.9 128.8 72.3C 123.8 68.9 121 62.9 121 55.7C 121 48.5 122.7 44.2 127.1 40.6C 132.4 36.1 135.8 34.9 142.7 35.3C 147.7 35.5 149.8 36.2 153.2 38.6zM 79.1 49.9C 83 53.9 83.2 59.9 79.4 63.7C 77.2 65.9 76.2 66.2 71.9 65.8C 65.7 65.2 63.9 63.5 63.3 57.7C 62.8 53.6 63.1 52.8 65.8 50C 70 45.9 75 45.8 79.1 49.9zM 103.4 67.2C 103.1 67.7 102.3 68 101.6 68C 100.5 68 100.5 67.2 101.4 63.9L 102.5 59.8L 103.2 63.1C 103.5 64.9 103.6 66.8 103.4 67.2z"/>
			<path style="fill:#FF6347;stroke: black;stroke-width: 1;" d="M 11.4 116.3C 11.2 117 11.1 123.7 11.2 131.1L 11.5 144.5L 15 144.8C 16.9 145 21.8 144.9 25.9 144.5C 31.8 143.9 33.8 143.3 35.6 141.4C 38.5 138.6 38.7 134.2 36.1 130.9C 34.4 128.7 34.4 128.2 35.6 126.5C 37.6 123.8 37.3 121.5 34.6 118.4C 32.4 115.7 31.8 115.6 22.1 115.3C 14.5 115.1 11.8 115.4 11.4 116.3zM 25.9 122.9C 27.8 124.1 26.3 126 23.4 126C 21.7 126 21 125.5 21 124C 21 121.9 23.4 121.3 25.9 122.9zM 27.5 135C 27.5 136 26.3 136.6 24.3 136.8C 21.5 137.1 21 136.8 21 135C 21 133.2 21.5 132.9 24.3 133.2C 26.3 133.4 27.5 134 27.5 135z"/>
			<path style="fill:#FF6347;stroke: black;stroke-width: 1;" d="M 41.7 115.6C 41.3 116 41 122.8 41 130.7L 41 145L 44.9 145C 49.4 145 50.4 144.2 55.1 136.8L 58.5 131.5L 59 138L 59.5 144.5L 63.8 144.8L 68 145.1L 68 130.1L 68 115L 63.8 115.3C 59.8 115.5 59.3 115.9 55 122L 50.5 128.5L 50 122L 49.5 115.5L 46 115.2C 44 115 42.1 115.2 41.7 115.6z"/>
			<path style="stroke:none; fill:#779ECB;stroke: black;stroke-width: 1;" d="M 71.7 115.6C 71.3 116 71 118.1 71 120.2L 71 124L 75.5 124L 79.9 124L 80.2 134.2L 80.5 144.5L 85 144.5L 89.5 144.5L 89.8 134.3L 90.1 124.1L 94.3 123.8C 98.5 123.5 98.5 123.5 98.5 119.5L 98.5 115.5L 85.4 115.2C 78.3 115.1 72.1 115.3 71.7 115.6z"/>
			<path style="stroke:none; fill:#779ECB;stroke: black;stroke-width: 1;" d="M 102.5 116.3C 102.2 117 102.1 123.7 102.2 131.1L 102.5 144.5L 120 144.5L 137.4 144.5L 139.8 141C 141.1 139.1 142.5 137.4 142.9 137.2C 143.3 137.1 144.6 138.8 145.9 141C 148.1 144.9 148.3 145 153.6 145C 156.6 145 159 144.8 159 144.4C 159 144.1 157.2 141.2 155 138C 152.8 134.7 150.7 131.4 150.4 130.5C 150.1 129.7 151.6 126.2 153.9 122.5C 156.2 119 158 115.8 158 115.6C 158 115.3 155.7 115.1 152.9 115.2C 148.2 115.2 147.7 115.4 145.8 118.6C 144.7 120.5 143.4 122 143 122C 142.6 122 141.3 120.5 140.2 118.6C 138.3 115.4 137.9 115.2 133.1 115.3C 130.3 115.3 128 115.6 128 115.9C 128 116.2 129.8 119.2 132 122.5C 134.2 125.8 136 128.8 136 129.2C 136 129.6 134.1 132.9 131.8 136.6C 127.6 143.1 127.5 143.2 127.2 140.1L 126.9 137L 119.4 137C 112.7 137 112 136.8 112 135C 112 133.2 112.7 133 118.5 133L 125 133L 125 129.5L 125 126L 118.5 126C 113.4 126 112 125.7 112 124.5C 112 123.3 113.5 123 119.1 123L 126.1 123L 125.8 119.2L 125.5 115.5L 114.2 115.2C 105.6 115 102.8 115.2 102.5 116.3z"/>
			<path style="stroke:none; fill:#779ECB;stroke: black;stroke-width: 1;" d="M 160 130L 160 145.1L 164.8 144.8L 169.5 144.5L 169.8 138.7L 170.1 132.9L 173.8 133.2L 177.5 133.5L 177.8 139.3L 178.1 145.1L 182.8 144.8L 187.5 144.5L 187.5 130L 187.5 115.5L 182.8 115.2L 178 114.9L 178 119.9L 178 125L 174.1 125L 170.1 125L 169.8 120.2L 169.5 115.5L 164.8 115.2L 160 114.9L 160 130z"/>
			<path style="stroke:none; fill:#779ECB;stroke: black;stroke-width: 1;" d="M 200.5 115.7C 197 116.7 194.2 119.1 192.6 122.5C 189.4 129.2 191.4 139 196.6 142.5C 202.8 146.5 214.9 144.8 218.5 139.4C 222.7 132.9 221 121.2 215.3 117.5C 212.7 115.8 204 114.7 200.5 115.7zM 210 124.9C 210.5 126 211 128.3 211 130C 211 134.7 209.4 137 206 137C 202.6 137 201 134.7 201 130C 201 128.3 201.5 126 202 124.9C 203.4 122.3 208.6 122.3 210 124.9z"/>
		</g>
	</g>
</svg>