<?xml version="1.0" ?><svg height="500" id="Layer_1" version="1.1" viewBox="0 0 500 500" width="500" xml:space="preserve" xmlns="http://www.w3.org/2000/svg" xmlns:cc="http://creativecommons.org/ns#" xmlns:dc="http://purl.org/dc/elements/1.1/" xmlns:inkscape="http://www.inkscape.org/namespaces/inkscape" xmlns:rdf="http://www.w3.org/1999/02/22-rdf-syntax-ns#" xmlns:sodipodi="http://sodipodi.sourceforge.net/DTD/sodipodi-0.dtd" xmlns:svg="http://www.w3.org/2000/svg"><defs id="defs7"/><rect height="500" id="rect2990" style="fill:#2a5b83;fill-opacity:1;stroke:none" width="500" x="0" y="0"/><path d="M 500,500 143.86547,500 70.850371,426.9849 84.033898,170.67797 295.25424,86.644067 426.80561,70.852223 500,144.04661 z" id="path3764" style="fill:#000000;stroke:#000000;stroke-width:1px;stroke-linecap:butt;stroke-linejoin:miter;stroke-opacity:1;opacity:0.3"/><path d="m 97.375,60 c -1.831475,0.33639 -3.630943,0.3701 -5.4375,0.78125 C 75.092909,64.61863 62.77959,78.36865 60.375,95.4375 60.27533,96.14766 60.112131,96.66484 60,97.375 l 0,305.25 c 0.348852,1.91869 0.720184,3.92506 1.15625,5.84375 3.725246,16.47081 17.548791,29.00084 34.28125,31.15625 0.797377,0.0997 1.533914,0.26287 2.34375,0.375 l 304.4375,0 c 1.98098,-0.32393 3.88768,-0.35764 5.84375,-0.78125 15.52393,-3.30164 28.11625,-16.32635 31.15625,-31.9375 0.31148,-1.70688 0.50715,-3.36808 0.78125,-5.0625 l 0,-304.4375 C 439.73836,96.1242 439.53023,94.7508 439.21875,93.09375 435.87974,76.06228 421.80578,62.74222 404.5625,60.375 403.83988,60.2878 403.33516,60.12459 402.625,60 z m 250.34375,30.75 c 11.97311,-0.0125 23.83939,0 35.8125,0 8.58426,0.0125 15.1875,6.98457 15.1875,15.59375 l 0,35.8125 c 0,8.06098 -6.35772,14.98815 -14.40625,15.1875 -6.26688,0.1495 -12.43308,0 -18.6875,0 -5.76853,0 -11.73147,0.375 -17.5,0.375 -7.10164,-0.0374 -12.65709,-4.17081 -14.8125,-10.5 -0.56065,-1.68196 -1.14379,-3.28086 -1.15625,-5.0625 -0.0872,-11.89836 -0.0125,-23.91414 0,-35.8125 0,-8.60918 6.9907,-15.58129 15.5625,-15.59375 z M 250,172.90625 c 43.13311,-0.0249 78.02818,35.54805 77.09375,78.65625 -0.9095,41.82492 -35.99781,76.45322 -79.03125,75.53125 -41.36394,-0.88459 -75.76675,-35.14181 -75.15625,-78.25 0.58557,-41.96197 34.93244,-75.96242 77.09375,-75.9375 z m -149.125,41.28125 36.21875,0 c -9.41901,32.21901 -6.71593,63.09101 9.34375,92.65625 10.7895,19.84721 26.26471,35.31752 45.9375,46.34375 38.93443,21.85311 87.13316,19.52404 123.8125,-5.46875 14.14099,-9.63082 25.74806,-21.58553 34.65625,-36.1875 8.9082,-14.60196 14.33785,-30.51836 16.34375,-47.5 2.0059,-16.98164 0.46441,-33.4726 -4.65625,-49.84375 l 36.1875,0 0,1.15625 c 0,56.16525 0.0125,112.41604 0,168.59375 0,8.16065 -6.60814,14.78125 -14.78125,14.78125 -89.20656,0.0125 -178.66844,0.0125 -267.875,0 -8.09836,0 -15.1875,-6.69535 -15.1875,-14.78125 -0.0125,-56.25246 0,-112.71629 0,-168.96875 z" id="rect2982" style="fill:#ffffff;fill-opacity:1;stroke:none"/></svg>